<?xml version="1.0" encoding="UTF-8"?>
<svg id="Capa_1" xmlns="http://www.w3.org/2000/svg" width="1920" height="1080" version="1.1" viewBox="0 0 1920 1080">
  <!-- Generator: Adobe Illustrator 30.0.0, SVG Export Plug-In . SVG Version: 2.1.1 Build 123)  -->
  <path d="M-9.6-5.4v1090.8h1939.2V-5.4H-9.6ZM777.6,617.9l-21.9-66.8,24.9-18.1h-30.8l-9.5-29.2-9.5,29.2h-30.8l24.9,18.1-21.9,66.8h-46.1l59.1-155.8h48.6l59.1,155.8h-46.1ZM935,582.9l-29.5-76.9h-.2l-30.2,76.8h0s-5.4,0-5.4,0l32.9-81.7h5.5l32.3,81.8h-5.4ZM1006.1,582.9h-51.5v-81.8h5.1v77.4h46.4v4.3ZM1085.5,582.9l-29.4-76.8h-.2l-30.3,76.8h-5.4l32.9-81.7h5.5l32.3,81.8h-5.4ZM1160.7,582.8c-1.1-2.1-1.7-4.3-1.8-6.7-.1-2.6-.2-5.2-.2-8s-.1-5.5-.4-8.2c-.2-2.6-.9-5-2.2-7.3-1.4-2.2-3.4-4-5.8-5.1-2.7-1.3-6.4-1.9-11.2-1.9h-29.1v37.2h-5v-81.8h34.1c3.4,0,6.8.4,10.1,1.1,3,.7,5.8,1.9,8.3,3.6,2.4,1.6,4.3,3.9,5.6,6.5,1.4,3.1,2.1,6.5,2,9.9.1,5-1.5,9.9-4.7,13.9-3.3,3.9-7.9,6.4-12.9,7v.2c3.2.3,6.2,1.3,8.9,3,2.1,1.4,3.8,3.4,4.9,5.6,1.1,2.3,1.8,4.8,2,7.3.3,2.7.5,5.3.5,8v4.7c0,1.4,0,2.9.2,4.3.2,1.3.4,2.5.8,3.7.3,1,.8,2,1.4,2.9h-5.6ZM1243.7,559.8c.1,3.8-.8,7.5-2.8,10.8-1.8,2.8-4.1,5.3-6.9,7.1-2.8,1.8-6,3.2-9.3,3.9-3.2.8-6.5,1.2-9.8,1.2-4.5,0-9.1-.5-13.5-1.5-4-.9-7.7-2.6-11-5-3.2-2.3-5.7-5.5-7.4-9-1.9-4.2-2.8-8.8-2.6-13.4h5.1c-.4,3.9.3,7.8,1.9,11.4,1.5,3,3.7,5.7,6.4,7.7,2.9,2,6.1,3.5,9.6,4.3,3.8.9,7.7,1.3,11.6,1.3,2.6,0,5.3-.3,7.8-.9,2.7-.6,5.3-1.6,7.7-3.1,2.3-1.5,4.3-3.4,5.8-5.7,1.7-2.7,2.5-5.8,2.3-8.9.1-3-.7-5.9-2.4-8.4-1.7-2.2-3.9-4-6.4-5.3-2.8-1.4-5.8-2.5-8.9-3.2-3.3-.8-6.7-1.5-10.2-2.2-3.4-.7-6.8-1.5-10.2-2.4-3.1-.8-6.1-2.1-8.9-3.7-2.6-1.5-4.7-3.6-6.3-6.1-1.7-2.9-2.6-6.2-2.4-9.6-.1-3.5.8-7,2.4-10,1.6-2.7,3.8-5,6.4-6.8,2.7-1.8,5.8-3.1,8.9-3.8,3.2-.8,6.4-1.2,9.7-1.2s8,.5,11.9,1.5c3.5.9,6.8,2.4,9.7,4.5,2.8,2,5.1,4.7,6.7,7.9,1.8,3.6,2.8,7.5,2.9,11.6h-5,0c0-3.2-.8-6.3-2.2-9.2-1.3-2.6-3.2-4.8-5.5-6.5-2.4-1.8-5.2-3.2-8.2-3.9-3.4-.9-6.9-1.3-10.4-1.3-2.5,0-4.9.3-7.4.8-2.6.5-5,1.5-7.3,2.8-2.2,1.3-4.1,3.2-5.6,5.4-1.5,2.5-2.3,5.5-2.2,8.4-.1,2.9.7,5.7,2.4,8,1.7,2.1,3.8,3.8,6.3,5,2.9,1.3,5.8,2.3,8.9,3,3.4.8,6.8,1.5,10.2,2.2,3.4.7,6.9,1.5,10.2,2.5,3.1.9,6.1,2.2,8.9,3.9,2.6,1.6,4.8,3.8,6.4,6.4,1.7,3,2.5,6.4,2.4,9.9ZM1263,582.8h-5v-81.7h5v81.7Z"/>
  <path d="M1154.2,536.8c1.9-1.6,3.4-3.6,4.3-5.8,1.1-2.7,1.7-5.6,1.6-8.5,0-2.7-.5-5.4-1.7-7.8-1.1-2.1-2.7-3.9-4.6-5.3-2-1.4-4.3-2.4-6.6-3-2.6-.6-5.3-.9-7.9-.9h-29.1v35.8h29.1c2.8,0,5.6-.4,8.3-1.1,2.4-.6,4.7-1.8,6.6-3.4Z"/>
</svg>